<svg xmlns="http://www.w3.org/2000/svg" width="48" height="48" viewBox="0 0 48 48"><g transform="translate(0.04)"><g transform="translate(-0.04)" fill="none" stroke="#27b7e6" stroke-miterlimit="10" stroke-width="1"><circle cx="24" cy="24" r="24" stroke="none"/><circle cx="24" cy="24" r="23.5" fill="none"/></g><path d="M28,8l-6,6.4h4.5V25.6a3.006,3.006,0,1,1-6,0V14.4a6.218,6.218,0,0,0-6-6.4,6.218,6.218,0,0,0-6,6.4V25.6H4L10,32l6-6.4H11.5V14.4a3.1,3.1,0,0,1,3-3.2,3.1,3.1,0,0,1,3,3.2V25.6a6.218,6.218,0,0,0,6,6.4,6.218,6.218,0,0,0,6-6.4V14.4H34Z" transform="translate(5.635 4)" fill="#fff"/></g></svg>